<svg xmlns="http://www.w3.org/2000/svg" width="32" height="32" fill="none" viewBox="0 0 32 32"><rect width="32" height="32" fill="#E1BE9D" rx="3"/><path fill="#2C323F" fill-rule="evenodd" d="M14.9872 18.6981C14.9645 18.674 14.9796 18.6328 15.0126 18.6316C16.0769 18.5939 18.9821 17.8708 20.455 15.1325C20.6767 14.7612 21.1291 14.0566 21.7701 13.853C21.7941 13.8454 21.8045 13.816 21.7914 13.7944C17.768 7.16646 9.55587 12.7104 12.2005 18.6332C15.0238 24.9559 22.4569 22.0289 22.2782 17.7464C22.2768 17.7112 22.2333 17.6958 22.2117 17.7236C21.9594 18.0489 21.6342 18.4026 21.2529 18.7369C20.8599 19.0814 20.4072 19.4053 19.9129 19.6561C18.4744 20.3859 16.6838 20.4971 14.9872 18.6981ZM13.8277 16.5065C13.8074 16.5043 13.792 16.4869 13.7938 16.4665C13.8238 16.1266 13.9027 15.7306 14.0449 15.3285C14.5723 13.8379 15.9705 12.2624 18.9774 13.1424C18.9981 13.1485 19.0107 13.17 19.0036 13.1904C18.8241 13.7025 18.4525 14.394 17.8709 15.0157C17.0066 15.9395 15.6786 16.709 13.8277 16.5065Z" clip-rule="evenodd"/><path fill="#2C323F" fill-rule="evenodd" d="M5.07262 6.74596C5.07262 6.78439 5.12371 6.79895 5.14467 6.7668C5.80196 5.7587 6.67082 5.35901 7.03806 5.28377C7.04051 5.28327 7.04284 5.28306 7.04534 5.28306H13.7715C13.8044 5.28306 13.8216 5.32231 13.7995 5.34674L3.00995 17.2435C2.9878 17.2679 3.00504 17.3072 3.03794 17.3072H17.833C17.8539 17.3072 17.8709 17.2901 17.8709 17.2691V15.0157C17.0066 15.9395 15.6786 16.709 13.8277 16.5065C13.8074 16.5043 13.792 16.4869 13.7938 16.4665C13.8238 16.1266 13.9027 15.7306 14.0449 15.3285H7.58263C7.54959 15.3285 7.5324 15.289 7.55484 15.2646L18.7965 3.0639C18.8189 3.03954 18.8017 3 18.7687 3H5.11049C5.08957 3 5.07262 3.01704 5.07262 3.03805V6.74596Z" clip-rule="evenodd"/><path fill="#2C323F" fill-rule="evenodd" d="M20.8436 29.9401C20.826 29.9653 20.844 30 20.8746 30H23.9732C24.006 30 24.0233 29.961 24.0013 29.9365L23.3864 29.2498C23.3801 29.2428 23.3767 29.2338 23.3767 29.2244V20.9819C23.3767 20.9609 23.3936 20.9439 23.4145 20.9439H25.2699C26.633 20.9439 27.3903 22.542 27.3903 23.303V29.227C27.3903 29.2348 27.3879 29.2424 27.3835 29.2488L26.9019 29.9401C26.8843 29.9653 26.9023 30 26.9329 30H29.9621C29.9938 30 30.0115 29.9631 29.9916 29.9382L29.4433 29.2494C29.4379 29.2427 29.435 29.2343 29.435 29.2256V22.542C29.1321 19.4979 26.6835 18.7369 25.4971 18.7369H21.2529C20.8599 19.0814 20.4072 19.4053 19.9129 19.6561C20.7983 20.6361 21.2195 21.8865 21.3314 22.5389C21.3318 22.5411 21.332 22.5431 21.332 22.5452V29.227C21.332 29.2348 21.3296 29.2424 21.3251 29.2488L20.8436 29.9401Z" clip-rule="evenodd"/><path stroke="#2C323F" stroke-linecap="round" stroke-width=".5" d="M3 21V29.8C3 29.9105 3.08954 30 3.2 30H9"/><path stroke="#2C323F" stroke-linecap="round" stroke-width=".5" d="M30 12L30 3.2C30 3.08954 29.9105 3 29.8 3L24 3"/></svg>