<svg width="84" height="23" viewBox="0 0 84 23" fill="none" xmlns="http://www.w3.org/2000/svg">
<path d="M65.2016 12.7543C65.1928 12.7919 65.1458 12.8012 65.123 12.7703C64.2036 11.5234 61.9622 9.46468 60.1599 10.9913C58.5176 12.3824 60.6161 13.5881 62.1672 14.0518C65.6694 15.0988 67.094 20.3582 63.7182 21.9349C59.5263 23.8926 57.1654 20.339 57.2318 17.7527C57.2331 17.705 57.2974 17.6918 57.3204 17.7334C58.1789 19.2831 61.2087 21.1348 62.5321 19.4308C63.7552 17.8561 61.0944 16.6628 58.7913 15.5357C56.3279 14.33 55.3627 9.46991 60.6161 8.30179C63.4903 7.6627 65.6571 10.7985 65.2016 12.7543Z" fill="#2C323F"/>
<path d="M66.6841 10.0705C66.6475 10.0411 66.6685 9.97277 66.715 9.97112C67.5527 9.94143 69.17 9.48229 70.1996 7.80142C70.2243 7.76114 70.2874 7.77831 70.2874 7.82576V21.2716C70.2874 21.2808 70.2901 21.2897 70.2951 21.2974L70.97 22.3265C70.9902 22.3573 70.9685 22.3986 70.9321 22.3986H66.9116C66.874 22.3986 66.8525 22.3549 66.8751 22.3244L67.6324 21.298C67.6383 21.29 67.6415 21.2802 67.6415 21.2702V12.197C67.6129 11.7026 67.3798 10.6285 66.6841 10.0705Z" fill="#2C323F"/>
<path fill-rule="evenodd" clip-rule="evenodd" d="M72.1137 13.0678C72.1128 13.1129 72.1693 13.1374 72.1964 13.1016C73.4163 11.4932 77.2199 8.95424 79.1911 11.4982C79.2098 11.5223 79.1984 11.5599 79.1703 11.5711C65.3668 17.11 74.9413 26.2847 80.3329 20.5399C80.3616 20.5093 80.4149 20.5275 80.4149 20.5697V21.8259C80.4149 21.8364 80.4114 21.8466 80.4049 21.8548L80.1092 22.2305C80.0853 22.2609 80.1066 22.3058 80.1448 22.3058H83.9543C83.9949 22.3058 84.0153 22.2559 83.9865 22.2267L82.8005 21.021C82.7919 21.0123 82.7871 21.0005 82.7871 20.9882V12.6607C82.7871 7.59572 72.2618 6.09703 72.1137 13.0678ZM80.4023 18.0528C80.4106 18.0442 80.4149 18.033 80.4149 18.0209V13.8457C80.4149 13.8119 80.3819 13.7888 80.3517 13.8028C77.9293 14.9251 73.2261 17.1292 75.3968 19.0599C77.1408 20.6111 79.4516 19.0429 80.4023 18.0528Z" fill="#2C323F"/>
<path fill-rule="evenodd" clip-rule="evenodd" d="M35.1742 6.23912C35.1659 6.25271 35.1509 6.26146 35.1352 6.26146H33.9465C33.9153 6.26146 33.8934 6.23025 33.9036 6.20032C36.1515 -0.427776 48.9473 -2.33716 52.1309 6.26146C55.3243 14.8865 56.3279 20.7292 56.6928 21.3784C56.9007 21.7481 57.3677 22.1417 57.5833 22.3119C57.6184 22.3396 57.5989 22.3986 57.5545 22.3986H53.1905C53.1457 22.3986 53.1239 22.3349 53.1573 22.3045C53.3198 22.156 53.6069 21.8365 53.682 21.3784C53.7839 20.757 52.2697 15.7174 52.1398 15.2868C52.1339 15.2673 52.1172 15.2574 52.0972 15.2574H48.1476C48.1288 15.2574 48.1119 15.2692 48.1051 15.287L45.3906 22.369C45.3837 22.3868 45.3669 22.3986 45.3481 22.3986H43.1655C43.1333 22.3986 43.1086 22.372 43.1205 22.3416C43.4781 21.4222 48.0395 9.6473 48.3901 6.26146C48.7547 2.7411 39.3779 -0.594184 35.1742 6.23912ZM51.6541 12.692C51.6642 12.7221 51.6422 12.7534 51.6109 12.7534H49.0941C49.0624 12.7534 49.0403 12.7214 49.0512 12.6911L50.3531 9.07413C50.3678 9.03308 50.4252 9.03371 50.4391 9.07508L51.6541 12.692Z" fill="#2C323F"/>
<path d="M31.3249 22.3058C31.288 22.3058 31.2663 22.2636 31.2875 22.2329L31.8677 21.3904C31.8731 21.3826 31.8759 21.3733 31.8759 21.3638V13.2211C31.8759 13.2184 31.8757 13.216 31.8753 13.2134C31.6963 12.158 30.8608 9.81895 28.9325 8.67044C28.8916 8.64606 28.9081 8.58001 28.9556 8.58001H36.8941C38.3235 8.58001 41.2735 9.50743 41.6385 13.2171V21.3621C41.6385 21.3727 41.642 21.3829 41.6485 21.3911L42.3091 22.2305C42.333 22.2609 42.3117 22.3058 42.2735 22.3058H38.624C38.5871 22.3058 38.5654 22.2636 38.5866 22.2329L39.1668 21.3904C39.1721 21.3826 39.175 21.3733 39.175 21.3638V14.1445C39.175 13.2171 38.2626 11.2695 36.6203 11.2695H34.385C34.3598 11.2695 34.3394 11.2903 34.3394 11.3159V21.3606C34.3394 21.3721 34.3435 21.3831 34.3511 21.3916L35.092 22.2284C35.1184 22.2583 35.0976 22.3058 35.0581 22.3058H31.3249Z" fill="#2C323F"/>
<path d="M2.58389 9.46077C2.55864 9.49994 2.49709 9.4822 2.49709 9.43537V4.9167C2.49709 4.89109 2.51752 4.87033 2.54271 4.87033H18.9981C19.0379 4.87033 19.0586 4.91852 19.0316 4.94821L5.48767 19.8167C5.46062 19.8463 5.48134 19.8945 5.52114 19.8945H15.4466C15.4508 19.8945 15.4548 19.894 15.4589 19.8928C15.8768 19.7699 16.9125 19.3047 17.8378 18.3964C17.867 18.3677 17.9164 18.3886 17.9164 18.4299V22.2595C17.9164 22.2851 17.896 22.3058 17.8708 22.3058H0.045709C0.00607764 22.3058 -0.0147035 22.258 0.0119923 22.2282L13.0112 7.7302C13.0379 7.70043 13.0171 7.65259 12.9775 7.65259H4.87381C4.87081 7.65259 4.86799 7.65285 4.86505 7.65347C4.4226 7.74516 3.37579 8.23223 2.58389 9.46077Z" fill="#2C323F"/>
<path fill-rule="evenodd" clip-rule="evenodd" d="M21.8212 18.026C21.7938 17.9967 21.8121 17.9464 21.8519 17.945C23.134 17.899 26.6343 17.0178 28.4089 13.6808C28.676 13.2283 29.221 12.3697 29.9933 12.1215C30.0221 12.1123 30.0347 12.0764 30.0189 12.0502C25.1715 3.97293 15.2776 10.7291 18.4639 17.947C21.8653 25.6522 30.8207 22.0851 30.6055 16.8662C30.6037 16.8234 30.5513 16.8046 30.5253 16.8384C28.996 18.8324 25.2492 21.7027 21.8212 18.026ZM20.4243 15.3552C20.3999 15.3525 20.3813 15.3313 20.3835 15.3065C20.5534 13.3567 22.0287 9.89373 26.6286 11.2556C26.6535 11.2629 26.6688 11.2892 26.6602 11.3141C26.1225 12.8655 24.1549 15.7681 20.4243 15.3552Z" fill="#2C323F"/>
<path d="M70.3786 5.8905C70.3786 6.81246 69.6434 7.55985 68.7363 7.55985C67.8293 7.55985 67.094 6.81246 67.094 5.8905C67.094 4.96854 67.8293 4.22114 68.7363 4.22114C69.6434 4.22114 70.3786 4.96854 70.3786 5.8905Z" fill="#2C323F"/>
</svg>
