<svg width="84" height="22" viewBox="0 0 84 22" fill="none" xmlns="http://www.w3.org/2000/svg">
<path d="M65.2016 12.2543C65.1928 12.2919 65.1458 12.3012 65.123 12.2703C64.2036 11.0234 61.9622 8.96468 60.1599 10.4913C58.5176 11.8824 60.6161 13.0881 62.1672 13.5518C65.6694 14.5988 67.094 19.8582 63.7182 21.4349C59.5263 23.3926 57.1654 19.839 57.2318 17.2527C57.2331 17.205 57.2974 17.1918 57.3204 17.2334C58.1789 18.7831 61.2087 20.6348 62.5321 18.9308C63.7552 17.3561 61.0944 16.1628 58.7913 15.0357C56.3279 13.83 55.3627 8.96991 60.6161 7.80179C63.4903 7.1627 65.6571 10.2985 65.2016 12.2543Z" fill="#D4A373"/>
<path d="M66.6841 9.57045C66.6475 9.54113 66.6685 9.47277 66.715 9.47112C67.5527 9.44143 69.17 8.98229 70.1996 7.30142C70.2243 7.26114 70.2874 7.27831 70.2874 7.32576V20.7716C70.2874 20.7808 70.2901 20.7897 70.2951 20.7974L70.97 21.8265C70.9902 21.8573 70.9685 21.8986 70.9321 21.8986H66.9116C66.874 21.8986 66.8525 21.855 66.8751 21.8244L67.6324 20.798C67.6383 20.79 67.6415 20.7802 67.6415 20.7702V11.697C67.6129 11.2026 67.3798 10.1285 66.6841 9.57045Z" fill="#D4A373"/>
<path fill-rule="evenodd" clip-rule="evenodd" d="M72.1137 12.5678C72.1128 12.6129 72.1693 12.6374 72.1964 12.6016C73.4163 10.9932 77.2199 8.45424 79.1911 10.9982C79.2098 11.0223 79.1984 11.0599 79.1703 11.0711C65.3668 16.61 74.9413 25.7847 80.3329 20.0399C80.3616 20.0093 80.4149 20.0275 80.4149 20.0697V21.3259C80.4149 21.3364 80.4114 21.3466 80.4049 21.3548L80.1092 21.7305C80.0853 21.7609 80.1066 21.8058 80.1448 21.8058H83.9543C83.9949 21.8058 84.0153 21.7559 83.9865 21.7267L82.8005 20.521C82.7919 20.5123 82.7871 20.5005 82.7871 20.4882V12.1607C82.7871 7.09572 72.2618 5.59703 72.1137 12.5678ZM80.4023 17.5528C80.4106 17.5442 80.4149 17.533 80.4149 17.5209V13.3457C80.4149 13.3119 80.3819 13.2888 80.3517 13.3028C77.9293 14.4251 73.2261 16.6292 75.3968 18.5599C77.1408 20.1111 79.4516 18.5429 80.4023 17.5528Z" fill="#D4A373"/>
<path fill-rule="evenodd" clip-rule="evenodd" d="M35.1742 5.73912C35.1659 5.75271 35.1509 5.76146 35.1352 5.76146H33.9465C33.9153 5.76146 33.8934 5.73025 33.9036 5.70032C36.1515 -0.927776 48.9473 -2.83716 52.1309 5.76146C55.3243 14.3865 56.3279 20.2292 56.6928 20.8784C56.9007 21.2481 57.3677 21.6417 57.5833 21.8119C57.6184 21.8396 57.5989 21.8986 57.5545 21.8986H53.1905C53.1457 21.8986 53.1239 21.8349 53.1573 21.8045C53.3198 21.656 53.6069 21.3365 53.682 20.8784C53.7839 20.257 52.2697 15.2174 52.1398 14.7868C52.1339 14.7673 52.1172 14.7574 52.0972 14.7574H48.1476C48.1288 14.7574 48.1119 14.7692 48.1051 14.787L45.3906 21.869C45.3837 21.8868 45.3669 21.8986 45.3481 21.8986H43.1655C43.1333 21.8986 43.1086 21.872 43.1205 21.8416C43.4781 20.9222 48.0395 9.1473 48.3901 5.76146C48.7547 2.2411 39.3779 -1.09418 35.1742 5.73912ZM51.6541 12.192C51.6642 12.2221 51.6422 12.2534 51.6109 12.2534H49.0941C49.0624 12.2534 49.0403 12.2214 49.0512 12.1911L50.3531 8.57414C50.3678 8.53308 50.4252 8.53371 50.4391 8.57508L51.6541 12.192Z" fill="#D4A373"/>
<path d="M31.3249 21.8058C31.288 21.8058 31.2663 21.7636 31.2875 21.7329L31.8677 20.8904C31.8731 20.8826 31.8759 20.8733 31.8759 20.8638V12.7211C31.8759 12.7184 31.8757 12.716 31.8753 12.7134C31.6963 11.658 30.8608 9.31895 28.9325 8.17044C28.8916 8.14606 28.9081 8.08002 28.9556 8.08002H36.8941C38.3235 8.08002 41.2735 9.00744 41.6385 12.7171V20.8621C41.6385 20.8727 41.642 20.8829 41.6485 20.8911L42.3091 21.7305C42.333 21.7609 42.3117 21.8058 42.2735 21.8058H38.624C38.5871 21.8058 38.5654 21.7636 38.5866 21.7329L39.1668 20.8904C39.1721 20.8826 39.175 20.8733 39.175 20.8638V13.6445C39.175 12.7171 38.2626 10.7695 36.6203 10.7695H34.385C34.3598 10.7695 34.3394 10.7903 34.3394 10.8159V20.8606C34.3394 20.8721 34.3435 20.8831 34.3511 20.8916L35.092 21.7284C35.1184 21.7583 35.0976 21.8058 35.0581 21.8058H31.3249Z" fill="#D4A373"/>
<path d="M2.58389 8.96077C2.55864 8.99994 2.49709 8.9822 2.49709 8.93537V4.41671C2.49709 4.3911 2.51752 4.37033 2.54271 4.37033H18.9981C19.0379 4.37033 19.0586 4.41852 19.0316 4.44821L5.48767 19.3167C5.46062 19.3464 5.48134 19.3945 5.52114 19.3945H15.4466C15.4508 19.3945 15.4548 19.394 15.4589 19.3928C15.8768 19.2699 16.9125 18.8047 17.8378 17.8964C17.867 17.8677 17.9164 17.8886 17.9164 17.9299V21.7595C17.9164 21.7851 17.896 21.8058 17.8708 21.8058H0.045709C0.00607764 21.8058 -0.0147035 21.758 0.0119923 21.7282L13.0112 7.2302C13.0379 7.20043 13.0171 7.15259 12.9775 7.15259H4.87381C4.87081 7.15259 4.86799 7.15286 4.86505 7.15347C4.4226 7.24516 3.37579 7.73224 2.58389 8.96077Z" fill="#D4A373"/>
<path fill-rule="evenodd" clip-rule="evenodd" d="M21.8212 17.526C21.7938 17.4967 21.8121 17.4464 21.8519 17.445C23.134 17.399 26.6343 16.5178 28.4089 13.1808C28.676 12.7283 29.221 11.8697 29.9933 11.6215C30.0221 11.6123 30.0347 11.5764 30.0189 11.5502C25.1715 3.47294 15.2776 10.2291 18.4639 17.447C21.8653 25.1522 30.8207 21.5851 30.6055 16.3662C30.6037 16.3234 30.5513 16.3046 30.5253 16.3384C28.996 18.3325 25.2492 21.2027 21.8212 17.526ZM20.4243 14.8552C20.3999 14.8525 20.3813 14.8313 20.3835 14.8065C20.5534 12.8567 22.0287 9.39373 26.6286 10.7556C26.6535 10.7629 26.6688 10.7892 26.6602 10.8141C26.1225 12.3655 24.1549 15.2681 20.4243 14.8552Z" fill="#D4A373"/>
<path d="M70.3786 5.3905C70.3786 6.31246 69.6434 7.05985 68.7363 7.05985C67.8293 7.05985 67.094 6.31246 67.094 5.3905C67.094 4.46854 67.8293 3.72114 68.7363 3.72114C69.6434 3.72114 70.3786 4.46854 70.3786 5.3905Z" fill="#D4A373"/>
</svg>
